<?xml version="1.0" encoding="UTF-8"?>
<svg id="Layer_1" xmlns="http://www.w3.org/2000/svg" version="1.1" viewBox="0 0 640 512">
  <!-- Generator: Adobe Illustrator 29.5.1, SVG Export Plug-In . SVG Version: 2.1.0 Build 141)  -->
  <defs>
    <style>
      .st0 {
        fill: #fff;
      }
    </style>
  </defs>
  <path class="st0" d="M524.53,69.84c-.16-.32-.43-.56-.76-.7-38.12-17.49-78.35-29.96-119.69-37.11-.77-.14-1.55.22-1.92.91-5.48,9.94-10.45,20.16-14.9,30.6-44.55-6.76-89.87-6.76-134.43,0-4.48-10.47-9.53-20.69-15.13-30.6-.39-.67-1.16-1.03-1.92-.91-41.34,7.13-81.57,19.6-119.69,37.11-.33.14-.6.37-.79.68C39.07,183.65,18.19,294.69,28.43,404.35c.06.54.33,1.04.76,1.38,44.39,32.87,94.04,57.95,146.83,74.19.76.23,1.58-.04,2.06-.68,11.34-15.43,21.38-31.76,30.04-48.84.46-.92.1-2.04-.82-2.5-.07-.03-.13-.06-.2-.09-15.84-6.06-31.18-13.37-45.87-21.85-.9-.53-1.2-1.68-.67-2.58.12-.21.29-.4.48-.55,3.08-2.31,6.17-4.71,9.11-7.14.53-.44,1.27-.54,1.9-.26,96.23,43.92,200.41,43.92,295.5,0,.63-.3,1.38-.21,1.92.23,2.94,2.43,6.03,4.85,9.13,7.16.83.62,1,1.8.38,2.64-.15.2-.33.36-.54.49-14.65,8.56-30.01,15.86-45.89,21.83-.97.37-1.45,1.45-1.09,2.42.02.07.05.13.09.19,8.8,16.98,18.83,33.3,30.01,48.82.47.65,1.3.93,2.06.7,52.88-16.18,102.62-41.27,147.06-74.19.44-.32.72-.81.77-1.35,12.26-126.78-20.53-236.91-86.93-334.54ZM222.49,337.58c-28.97,0-52.84-26.59-52.84-59.24s23.41-59.24,52.84-59.24,53.31,26.82,52.84,59.24c0,32.65-23.41,59.24-52.84,59.24ZM417.87,337.58c-28.97,0-52.84-26.59-52.84-59.24s23.41-59.24,52.84-59.24,53.31,26.82,52.84,59.24c0,32.65-23.18,59.24-52.84,59.24Z"/>
</svg>